<?xml version="1.0" encoding="iso-8859-1"?>
<!-- Generator: Adobe Illustrator 19.0.0, SVG Export Plug-In . SVG Version: 6.00 Build 0)  -->
<svg version="1.1" id="Layer_1" xmlns="http://www.w3.org/2000/svg" xmlns:xlink="http://www.w3.org/1999/xlink" x="0px" y="0px"
	 viewBox="0 0 512.001 512.001" style="enable-background:new 0 0 512.001 512.001;" xml:space="preserve">
<rect x="11.532" y="139.401" style="fill:#FD6A33;" width="488.936" height="364.558"/>
<rect x="11.532" y="139.401" style="fill:#F0353D;" width="244.468" height="364.558"/>
<rect x="11.532" y="139.401" style="fill:#FFD1A9;" width="488.936" height="90.067"/>
<rect x="11.532" y="139.401" style="fill:#FF8C29;" width="244.468" height="90.067"/>
<circle style="fill:#E6EAEA;" cx="157.35" cy="418.181" r="30.022"/>
<circle style="fill:#4ACFD9;" cx="255.995" cy="323.825" r="124.379"/>
<circle style="fill:#687F82;" cx="255.995" cy="323.825" r="81.489"/>
<path style="fill:#0295AA;" d="M131.622,323.825c0,68.692,55.686,124.379,124.379,124.379V199.446
	C187.308,199.446,131.622,255.132,131.622,323.825z"/>
<path style="fill:#365558;" d="M174.511,323.825c0,45.006,36.484,81.489,81.489,81.489V242.335
	C210.995,242.335,174.511,278.819,174.511,323.825z"/>
<g>
	<path style="fill:#FFFFFF;" d="M256,381.189c-4.441,0-8.042-3.601-8.042-8.042s3.601-8.042,8.042-8.042
		c11.248,0,21.769-4.464,29.626-12.568c3.091-3.189,8.182-3.267,11.371-0.176c3.189,3.091,3.267,8.182,0.176,11.371
		C286.261,374.989,271.639,381.189,256,381.189z"/>
	<path style="fill:#FFFFFF;" d="M303.626,344.735c-0.695,0-1.401-0.091-2.104-0.281c-4.288-1.16-6.823-5.576-5.664-9.862
		c0.944-3.491,1.423-7.114,1.423-10.768c0-22.762-18.518-41.281-41.281-41.281c-4.441,0-8.042-3.601-8.042-8.042
		c0-4.441,3.601-8.042,8.042-8.042c31.631,0,57.364,25.733,57.364,57.364c0,5.072-0.667,10.107-1.981,14.967
		C310.414,342.375,307.168,344.735,303.626,344.735z"/>
</g>
<polygon style="fill:#687F82;" points="333.201,139.401 178.8,139.401 191.667,57.912 320.334,57.912 "/>
<polygon style="fill:#E6EAEA;" points="203.896,117.957 209.991,79.356 302.01,79.356 308.104,117.957 "/>
<polygon style="fill:#365558;" points="191.667,57.912 178.8,139.401 256,139.401 256,57.912 "/>
<polygon style="fill:#9BAAAB;" points="209.991,79.356 203.896,117.957 256,117.957 256,79.356 "/>
<rect x="62.999" y="96.512" style="fill:#687F82;" width="60.045" height="42.889"/>
<g>
	<path style="fill:#FFFFFF;" d="M453.29,469.112c-4.441,0-8.042-3.601-8.042-8.042V268.069c0-4.441,3.601-8.042,8.042-8.042
		s8.042,3.601,8.042,8.042V461.07C461.332,465.511,457.732,469.112,453.29,469.112z"/>
	<path style="fill:#FFFFFF;" d="M453.29,207.488c-4.441,0-8.042-3.601-8.042-8.042v-34.311c0-4.441,3.601-8.042,8.042-8.042
		s8.042,3.601,8.042,8.042v34.311C461.332,203.887,457.732,207.488,453.29,207.488z"/>
</g>
<g>
	<path style="fill:#F0353D;" d="M397.319,64.608H363.96c-4.441,0-8.042-3.601-8.042-8.042s3.601-8.042,8.042-8.042h33.359
		c4.441,0,8.042,3.601,8.042,8.042S401.76,64.608,397.319,64.608z"/>
	<path style="fill:#F0353D;" d="M375.874,113.132c-2.058,0-4.116-0.785-5.686-2.356l-21.229-21.229
		c-3.141-3.141-3.141-8.233,0-11.372c3.141-3.141,8.233-3.141,11.372,0l21.229,21.229c3.141,3.141,3.141,8.233,0,11.372
		C379.99,112.346,377.932,113.132,375.874,113.132z"/>
	<path style="fill:#F0353D;" d="M354.861,37.313c-2.059,0-4.116-0.785-5.686-2.356c-3.141-3.141-3.141-8.233,0-11.373l21.229-21.229
		c3.141-3.141,8.233-3.141,11.372,0c3.141,3.141,3.141,8.233,0,11.373l-21.229,21.229C358.977,36.527,356.919,37.313,354.861,37.313
		z"/>
</g>
<path d="M500.469,131.36H340.072l-11.795-74.702c-0.618-3.908-3.987-6.787-7.943-6.787H191.667c-3.957,0-7.327,2.879-7.943,6.787
	l-11.796,74.702h-40.842V96.512c0-4.441-3.601-8.042-8.042-8.042H62.999c-4.441,0-8.042,3.601-8.042,8.042v34.847H11.532
	c-4.441,0-8.042,3.601-8.042,8.042v90.067v274.491c0,4.441,3.601,8.042,8.042,8.042h488.936c4.441,0,8.042-3.601,8.042-8.042
	V229.468v-90.067C508.51,134.959,504.91,131.36,500.469,131.36z M198.538,65.954h114.925l10.328,65.406H188.211L198.538,65.954z
	 M115.002,104.554v26.806H71.041v-26.806H115.002z M62.999,147.443h60.045H178.8h154.368c0.007,0,0.015,0.001,0.024,0.001
	c0.004,0,0.009-0.001,0.013-0.001h159.223v73.984H339.96c-23.622-19.383-53.315-30.022-83.96-30.022s-60.339,10.64-83.96,30.022
	H19.574v-73.984H62.999z M146.884,398.843c8.042,11.654,18.02,22.087,29.305,30.641c-3.915,6.474-11.048,10.676-18.834,10.676
	c-12.12,0-21.981-9.86-21.981-21.981C135.375,409.946,139.91,402.607,146.884,398.843z M190.657,420.086
	c-0.002-0.001-0.005-0.003-0.008-0.005c-0.018-0.013-0.035-0.026-0.054-0.038c-13.449-9.161-25.074-21.315-33.627-35.154
	c-0.01-0.016-0.02-0.031-0.03-0.047c-0.003-0.005-0.006-0.011-0.01-0.016c-11.295-18.301-17.265-39.396-17.265-61.002
	c0-33.939,14.779-66.108,40.546-88.257c0.001-0.001,0.002-0.002,0.003-0.003c21.064-18.105,47.979-28.076,75.787-28.076
	c27.807,0,54.722,9.971,75.787,28.076c0.001,0.001,0.002,0.002,0.003,0.003c25.768,22.15,40.546,54.319,40.546,88.257
	c0,64.148-52.189,116.337-116.337,116.337C232.559,440.161,209.964,433.219,190.657,420.086z M19.574,495.917V237.51h136.022
	c-20.527,23.868-32.016,54.4-32.016,86.314c0,21.423,5.164,42.406,14.996,61.237c-11.708,6.62-19.285,19.122-19.285,33.119
	c0,20.989,17.075,38.064,38.064,38.064c13.224,0,25.367-7.001,32.225-17.852c20.128,11.7,42.9,17.852,66.42,17.852
	c73.017,0,132.42-59.404,132.42-132.42c0-31.915-11.489-62.447-32.016-86.314h136.022v258.407H19.574z"/>
<path d="M345.531,323.825c0-49.368-40.164-89.531-89.531-89.531s-89.531,40.164-89.531,89.531s40.164,89.531,89.531,89.531
	S345.531,373.192,345.531,323.825z M182.553,323.825c0-40.499,32.949-73.448,73.448-73.448s73.448,32.949,73.448,73.448
	S296.5,397.272,256,397.272S182.553,364.324,182.553,323.825z"/>
<g>
</g>
<g>
</g>
<g>
</g>
<g>
</g>
<g>
</g>
<g>
</g>
<g>
</g>
<g>
</g>
<g>
</g>
<g>
</g>
<g>
</g>
<g>
</g>
<g>
</g>
<g>
</g>
<g>
</g>
</svg>
