<?xml version="1.0" encoding="iso-8859-1"?>
<!-- Generator: Adobe Illustrator 19.0.0, SVG Export Plug-In . SVG Version: 6.00 Build 0)  -->
<svg version="1.1" id="Layer_1" xmlns="http://www.w3.org/2000/svg" xmlns:xlink="http://www.w3.org/1999/xlink" x="0px" y="0px"
	 viewBox="0 0 512 512" style="enable-background:new 0 0 512 512;" xml:space="preserve">
<path style="fill:#2F9390;" d="M128,511.789H16.696C7.479,511.789,0,504.316,0,495.093v-256c0-9.223,7.479-16.696,16.696-16.696H128
	c9.217,0,16.696,7.473,16.696,16.696v256C144.696,504.316,137.217,511.789,128,511.789z"/>
<g>
	<path style="fill:#CCE8FF;" d="M94.609,322.571H50.087c-9.217,0-16.696-7.473-16.696-16.696c0-9.223,7.479-16.696,16.696-16.696
		h44.522c9.217,0,16.696,7.473,16.696,16.696C111.304,315.098,103.826,322.571,94.609,322.571z"/>
	<path style="fill:#CCE8FF;" d="M94.609,389.354H50.087c-9.217,0-16.696-7.473-16.696-16.696s7.479-16.696,16.696-16.696h44.522
		c9.217,0,16.696,7.473,16.696,16.696S103.826,389.354,94.609,389.354z"/>
</g>
<path style="fill:#247F7B;" d="M495.304,511.789H384c-9.217,0-16.696-7.473-16.696-16.696v-256c0-9.223,7.479-16.696,16.696-16.696
	h111.304c9.217,0,16.696,7.473,16.696,16.696v256C512,504.316,504.521,511.789,495.304,511.789z"/>
<g>
	<path style="fill:#B0DBFF;" d="M461.913,322.571h-44.522c-9.217,0-16.696-7.473-16.696-16.696c0-9.223,7.479-16.696,16.696-16.696
		h44.522c9.217,0,16.696,7.473,16.696,16.696C478.609,315.098,471.13,322.571,461.913,322.571z"/>
	<path style="fill:#B0DBFF;" d="M461.913,389.354h-44.522c-9.217,0-16.696-7.473-16.696-16.696s7.479-16.696,16.696-16.696h44.522
		c9.217,0,16.696,7.473,16.696,16.696S471.13,389.354,461.913,389.354z"/>
</g>
<path style="fill:#57D4D4;" d="M384,511.789H128c-9.217,0-16.696-7.473-16.696-16.696V138.919c0-9.223,7.479-16.696,16.696-16.696
	h256c9.217,0,16.696,7.473,16.696,16.696v356.174C400.696,504.316,393.217,511.789,384,511.789z"/>
<path style="fill:#4DBFBF;" d="M384,122.223H256v389.565h128c9.217,0,16.696-7.473,16.696-16.696V138.919
	C400.696,129.695,393.217,122.223,384,122.223z"/>
<path style="fill:#A6673A;" d="M311.652,511.789H200.348V406.049c0-9.22,7.475-16.696,16.696-16.696h77.913
	c9.22,0,16.696,7.475,16.696,16.696V511.789z"/>
<path style="fill:#99522E;" d="M294.957,389.354H256v122.435h55.652V406.049C311.652,396.828,304.177,389.354,294.957,389.354z"/>
<path style="fill:#CCE8FF;" d="M317.217,222.397H194.783c-9.217,0-16.696-7.473-16.696-16.696c0-9.223,7.479-16.696,16.696-16.696
	h122.435c9.217,0,16.696,7.473,16.696,16.696C333.913,214.924,326.435,222.397,317.217,222.397z"/>
<path style="fill:#B0DBFF;" d="M317.217,189.006H256v33.391h61.217c9.217,0,16.696-7.473,16.696-16.696
	C333.913,196.479,326.435,189.006,317.217,189.006z"/>
<path style="fill:#CCE8FF;" d="M317.217,289.18H194.783c-9.217,0-16.696-7.473-16.696-16.696c0-9.223,7.479-16.696,16.696-16.696
	h122.435c9.217,0,16.696,7.473,16.696,16.696C333.913,281.707,326.435,289.18,317.217,289.18z"/>
<path style="fill:#B0DBFF;" d="M317.217,255.789H256v33.391h61.217c9.217,0,16.696-7.473,16.696-16.696
	C333.913,263.262,326.435,255.789,317.217,255.789z"/>
<path style="fill:#CCE8FF;" d="M317.217,355.962H194.783c-9.217,0-16.696-7.473-16.696-16.696s7.479-16.696,16.696-16.696h122.435
	c9.217,0,16.696,7.473,16.696,16.696S326.435,355.962,317.217,355.962z"/>
<path style="fill:#B0DBFF;" d="M317.217,322.571H256v33.391h61.217c9.217,0,16.696-7.473,16.696-16.696
	S326.435,322.571,317.217,322.571z"/>
<path style="fill:#FF80AC;" d="M256,155.75c-3.87,0-7.739-1.342-10.87-4.021c-7.815-6.702-15.185-12.755-21.989-18.359
	c-32.554-26.761-56.065-46.098-56.065-77.69c0-31.103,23.196-55.467,52.815-55.467c15.728,0,27.598,6.685,36.108,15.386
	c8.51-8.701,20.381-15.386,36.108-15.386c29.619,0,52.815,24.365,52.815,55.467c0,31.593-23.511,50.93-56.065,77.69
	c-6.804,5.603-14.173,11.658-21.989,18.359C263.739,154.408,259.87,155.75,256,155.75z"/>
<path style="fill:#F26D99;" d="M266.87,151.728c7.815-6.702,15.185-12.755,21.989-18.359c32.554-26.761,56.065-46.098,56.065-77.69
	c0-31.103-23.196-55.467-52.815-55.467c-15.728,0-27.598,6.685-36.108,15.386v140.152C259.87,155.75,263.739,154.408,266.87,151.728
	z"/>
<g>
</g>
<g>
</g>
<g>
</g>
<g>
</g>
<g>
</g>
<g>
</g>
<g>
</g>
<g>
</g>
<g>
</g>
<g>
</g>
<g>
</g>
<g>
</g>
<g>
</g>
<g>
</g>
<g>
</g>
</svg>
